<?xml version="1.0" encoding="UTF-8" standalone="no"?>
<!-- Created with Inkscape (http://www.inkscape.org/) -->

<svg
   width="512"
   height="512"
   viewBox="0 0 512 512"
   version="1.1"
   id="svg5"
   sodipodi:docname="knob1.svg"
   inkscape:version="1.2.1 (9c6d41e410, 2022-07-14)"
   xmlns:inkscape="http://www.inkscape.org/namespaces/inkscape"
   xmlns:sodipodi="http://sodipodi.sourceforge.net/DTD/sodipodi-0.dtd"
   xmlns="http://www.w3.org/2000/svg"
   xmlns:svg="http://www.w3.org/2000/svg">
  <sodipodi:namedview
     id="namedview7"
     pagecolor="#ffffff"
     bordercolor="#000000"
     borderopacity="0.25"
     inkscape:showpageshadow="2"
     inkscape:pageopacity="0.0"
     inkscape:pagecheckerboard="0"
     inkscape:deskcolor="#d1d1d1"
     inkscape:document-units="px"
     showgrid="false"
     inkscape:zoom="1.4142136"
     inkscape:cx="190.21172"
     inkscape:cy="293.09576"
     inkscape:window-width="2256"
     inkscape:window-height="1425"
     inkscape:window-x="-9"
     inkscape:window-y="-9"
     inkscape:window-maximized="1"
     inkscape:current-layer="svg5" />
  <defs
     id="defs2">
    <inkscape:path-effect
       effect="ruler"
       id="path-effect17697"
       is_visible="true"
       lpeversion="1"
       unit="px"
       mark_distance="20"
       mark_length="14"
       minor_mark_length="7"
       major_mark_steps="5"
       shift="0"
       offset="0"
       mark_dir="left"
       border_marks="both" />
    <inkscape:path-effect
       effect="fillet_chamfer"
       id="path-effect13882"
       is_visible="true"
       lpeversion="1"
       nodesatellites_param="C,0,0,1,0,3,0,4 @ C,0,0,1,0,3,0,4 @ C,0,0,1,0,3,0,4 @ C,0,0,1,0,3,0,4 @ C,0,0,1,0,3,0,4 @ C,0,0,1,0,3,0,4"
       unit="px"
       method="auto"
       mode="F"
       radius="3"
       chamfer_steps="4"
       flexible="false"
       use_knot_distance="true"
       apply_no_radius="true"
       apply_with_radius="true"
       only_selected="false"
       hide_knots="false" />
  </defs>
  <g
     inkscape:label="Mobile"
     inkscape:groupmode="layer"
     id="layer1"
     style="opacity:1">
    <path
       id="path111"
       style="display:inline;fill:#444430;fill-opacity:0.304348"
       inkscape:label="Base"
       d="m 256,0.1 a 256,256 0 0 0 -256,256 256,256 0 0 0 256,256 256,256 0 0 0 256,-256 256,256 0 0 0 -256,-256 z m 0,106 a 150,150 0 0 1 150,150 150,150 0 0 1 -150,150 150,150 0 0 1 -150,-150 150,150 0 0 1 150,-150 z" />
    <path
       id="rect13823"
       style="opacity:1;fill:#000000;fill-opacity:0.80000001;stroke:none;stroke-width:1.1593"
       d="m 253.70322,2.3656983 c -0.003,1.292e-4 -0.005,2.584e-4 -0.008,3.877e-4 l -1.16615,0.2965319 -0.95215,0.6952399 -0.64188,0.9902473 L 250.7,5.5296593 V 74.303417 l 0.23494,1.14807 0.64084,0.901706 0.95075,0.569507 1.16467,0.151474 c 0.005,-3.39e-4 0.01,-6.77e-4 0.0146,-0.001 l 1.4009,-0.07541 1.59465,-0.05114 1.59532,-0.02243 1.40289,0.01071 c 6e-4,1.4e-5 0.001,2.8e-5 0.002,4.2e-5 l 1.16733,-0.205414 0.95313,-0.613577 0.64255,-0.93143 0.2356,-1.158973 V 5.3301892 l -0.23568,-1.1737242 -0.64275,-0.9688971 -0.95336,-0.6635783 -1.16752,-0.257768 c -3.2e-4,-5.5e-6 -6.4e-4,-1.1e-5 -9.5e-4,-1.64e-5 L 258.2966,2.258 l -1.59582,0.015978 -1.59547,0.036965 z"
       inkscape:path-effect="#path-effect13882"
       inkscape:original-d="m 256.7,2.227015 a 256,180.30992 0 0 0 -6,0.3026443 V 77.303417 a 150,105.65035 0 0 1 6,-0.416825 150,105.65035 0 0 1 6,0.138944 V 2.3301892 a 256,180.30992 0 0 0 -6,-0.1031742 z"
       inkscape:label="Mark" />
    <path
       id="path5306"
       style="display:inline;fill:#9b9b9b;fill-opacity:1;stroke-width:0.944445"
       inkscape:label="Knob"
       d="m 86.015577,253.80274 a 8.7372747,8.7373498 89.966089 0 1 3.5,6.33399 8.7372747,8.7373498 89.966089 0 1 -2.77148,6.66015 170,170 0 0 0 0.30468,4.24219 8.7372745,8.7373496 89.937258 0 1 3.71094,5.65625 8.7372745,8.7373496 89.937258 0 1 -2.25976,7.07031 170,170 0 0 0 0.87109,4.00196 8.7372803,8.7373555 89.910107 0 1 4.27734,5.28515 8.7372803,8.7373555 89.910107 0 1 -1.55078,7.25391 170,170 0 0 0 0.83399,3.67187 8.7372833,8.7373584 89.885584 0 1 5.22461,5.06446 8.7372833,8.7373584 89.885584 0 1 -0.67969,7.11719 170,170 0 0 0 1.48047,3.9707 8.7372795,8.7373545 89.864532 0 1 5.277343,4.375 8.7372795,8.7373545 89.864532 0 1 -0.0312,7.24804 170,170 0 0 0 2.0293,3.7168 8.7372842,8.7373592 89.847689 0 1 5.58789,3.81641 8.7372842,8.7373592 89.847689 0 1 0.57813,7.47656 170,170 0 0 0 2.166,3.16406 8.7372781,8.737353 89.83569 0 1 6.27736,3.30664 8.7372781,8.737353 89.83569 0 1 1.416,6.97266 170,170 0 0 0 2.5,3.33789 8.7372786,8.7373535 89.829054 0 1 6.44532,2.66602 8.7372786,8.7373535 89.829054 0 1 2.0957,6.79101 170,170 0 0 0 3.0625,3.0625 8.7372775,8.7373523 89.828147 0 1 6.44141,2.02344 8.7372775,8.7373523 89.828147 0 1 2.73438,6.92578 170,170 0 0 0 3.1875,2.38672 8.7372823,8.737357 89.833045 0 1 6.80468,1.35156 8.7372823,8.737357 89.833045 0 1 3.39062,6.28125 170,170 0 0 0 3.25,2.43164 8.7372836,8.7373582 89.843479 0 1 7.08986,0.63477 8.7372836,8.7373582 89.843479 0 1 3.97264,5.78906 170,170 0 0 0 3.83203,2.0918 8.7372783,8.7373528 89.858999 0 1 6.79103,0.0527 8.7372783,8.7373528 89.858999 0 1 4.57616,5.61914 170,170 0 0 0 3.91602,1.46093 8.7372817,8.7373562 89.879015 0 1 6.82226,-0.63671 8.7372817,8.7373562 89.879015 0 1 5.07813,5.07617 170,170 0 0 0 3.64062,1.35742 8.7372773,8.7373517 89.902819 0 1 7.16211,-1.55078 8.7372773,8.7373517 89.902819 0 1 5.43946,4.32031 170,170 0 0 0 4.25195,0.92383 8.7372763,8.7373507 89.929581 0 1 6.59375,-1.9668 8.7372763,8.7373507 89.929581 0 1 5.90625,3.88672 170,170 0 0 0 4.30859,0.30859 8.7372751,8.7373495 89.965735 0 1 6.09571,-2.57226 8.7372751,8.7373495 89.965735 0 1 6.60546,3.48047 170,170 0 0 0 1.71095,0.12304 170,170 0 0 0 2.21289,-0.1582 8.7372641,8.7373385 89.98826 0 1 6.28125,-3.45117 8.7372641,8.7373385 89.98826 0 1 6.0957,2.56641 170,170 0 0 0 4.49805,-0.32227 8.7373407,8.7372663 0.01804285 0 1 5.91015,-3.89844 8.7373407,8.7372663 0.01804285 0 1 6.71093,1.89844 170,170 0 0 0 4.37696,-0.95312 8.7373446,8.7372702 0.04593603 0 1 5.17383,-4.23243 8.7373446,8.7372702 0.04593603 0 1 7.18945,1.45703 170,170 0 0 0 3.89258,-1.45117 8.7373492,8.7372747 0.07078843 0 1 4.77735,-4.90625 8.7373492,8.7372747 0.07078843 0 1 6.95508,0.5293 170,170 0 0 0 4.00195,-1.49218 8.737358,8.7372835 0.09622123 0 1 4.14844,-5.41992 8.737358,8.7372835 0.09622123 0 1 7.08203,-0.27149 170,170 0 0 0 3.85741,-2.10547 8.7373574,8.7372828 0.11129467 0 1 3.64844,-5.58594 8.7373574,8.7372828 0.11129467 0 1 7.32227,-0.85546 170,170 0 0 0 3.04688,-2.28125 8.7373617,8.737287 0.12124794 0 1 3.35937,-6.2461 8.7373617,8.737287 0.12124794 0 1 7.09375,-1.58008 170,170 0 0 0 2.91212,-2.17968 8.73737,8.7372952 0.12586418 0 1 -0.0508,-0.23633 8.73737,8.7372952 0.12586418 0 1 2.77736,-6.70703 8.73737,8.7372952 0.12586418 0 1 6.69336,-2.28125 170,170 0 0 0 2.92382,-2.92383 8.7373665,8.7372917 0.12506195 0 1 -0.20703,-1.00977 8.7373665,8.7372917 0.12506195 0 1 2.20118,-5.69531 8.7373665,8.7372917 0.12506195 0 1 6.59961,-2.89844 170,170 0 0 0 2.51757,-3.36132 8.7373678,8.7372929 0.11887501 0 1 -0.4082,-2.10743 8.7373678,8.7372929 0.11887501 0 1 1.66406,-4.63476 8.7373678,8.7372929 0.11887501 0 1 6.42774,-3.52344 170,170 0 0 0 2.11328,-3.21289 8.7373644,8.7372895 0.1074534 0 1 -0.72461,-2.45313 8.7373644,8.7372895 0.1074534 0 1 1.21094,-4.77343 8.7373644,8.7372895 0.1074534 0 1 5.68164,-4.06836 170,170 0 0 0 2.05468,-3.76367 8.7373534,8.7372783 0.08626557 0 1 -0.9707,-3.11914 8.7373534,8.7372783 0.08626557 0 1 0.73047,-3.64063 8.7373534,8.7372783 0.08626557 0 1 5.37694,-4.79101 170,170 0 0 0 1.52149,-4.07618 8.7373481,8.737273 0.06436958 0 1 -1.25,-4.14062 8.7373481,8.737273 0.06436958 0 1 0.42383,-2.45117 8.7373481,8.737273 0.06436958 0 1 5.29492,-5.45899 170,170 0 0 0 0.80859,-3.71484 8.7373472,8.7372721 0.03883706 0 1 -1.79101,-4.32227 8.7373472,8.7372721 0.03883706 0 1 0.17773,-2.48047 8.7373472,8.7372721 0.03883706 0 1 4.34766,-5.76562 170,170 0 0 0 0.85547,-3.93555 8.7373379,8.7372627 0.01061603 0 1 -2.38868,-5.39258 8.7373379,8.7372627 0.01061603 0 1 0.0527,-1.24609 8.7373379,8.7372627 0.01061603 0 1 3.73633,-6.16797 170,170 0 0 0 0.30468,-4.25 8.7372636,8.7373387 89.980874 0 1 -2.80859,-6.12109 8.7372636,8.7373387 89.980874 0 1 3.4043,-6.47461 170,170 0 0 0 -0.30274,-4.21875 8.7372778,8.737353 89.951528 0 1 -3.50781,-5.90235 8.7372778,8.737353 89.951528 0 1 -0.0176,-1.24609 8.7372778,8.737353 89.951528 0 1 2.62695,-5.41992 170,170 0 0 0 -0.29101,-4.07422 8.7372839,8.7373591 89.923411 0 1 -4.37891,-5.73828 8.7372839,8.7373591 89.923411 0 1 -0.14062,-1.24024 8.7372839,8.7373591 89.923411 0 1 1.97461,-5.51757 170,170 0 0 0 -0.94336,-4.33985 8.7372826,8.7373577 89.897462 0 1 -4.58399,-5.09961 8.7372826,8.7373577 89.897462 0 1 -0.34765,-2.46289 8.7372826,8.7373577 89.897462 0 1 1.59179,-4.74609 170,170 0 0 0 -1.45507,-3.9043 8.737282,8.7373571 89.874576 0 1 -5.08007,-4.63672 8.737282,8.7373571 89.874576 0 1 -0.61524,-3.66406 8.737282,8.7373571 89.874576 0 1 1.25196,-3.61328 170,170 0 0 0 -1.50782,-3.60156 8.7372822,8.7373572 89.855542 0 1 -5.96093,-4.26563 8.7372822,8.7373572 89.855542 0 1 -0.96875,-3.58594 8.7372822,8.7373572 89.855542 0 1 0.80859,-3.36132 170,170 0 0 0 -2.09766,-3.8418 8.7372777,8.7373526 89.841048 0 1 -6.04882,-3.59766 8.7372777,8.7373526 89.841048 0 1 -1.40821,-4.71679 8.7372777,8.7373526 89.841048 0 1 0.57617,-2.30664 170,170 0 0 0 -2.61132,-3.48829 8.7372781,8.737353 89.831674 0 1 -6.25196,-2.97265 8.7372781,8.737353 89.831674 0 1 -1.90429,-5.80274 8.7372781,8.737353 89.831674 0 1 0.4082,-1.57421 170,170 0 0 0 -2.66211,-2.72461 8.7372719,8.7373466 89.827869 0 1 -6.83008,-2.34571 8.7372719,8.7373466 89.827869 0 1 -2.4668,-5.58594 8.7372719,8.7373466 89.827869 0 1 0.18555,-1.17968 170,170 0 0 0 -2.86523,-2.86524 8.7372787,8.7373534 89.829882 0 1 -7.02344,-1.66015 8.7372787,8.7373534 89.829882 0 1 -3.11523,-6.55664 8.7372787,8.7373534 89.829882 0 1 0.008,-0.0449 170,170 0 0 0 -3.22656,-2.41601 8.7372823,8.737357 89.837594 0 1 -6.90625,-1.00781 8.7372823,8.737357 89.837594 0 1 -3.57813,-6.49219 170,170 0 0 0 -3.45898,-1.88867 8.7372842,8.7373588 89.850637 0 1 -7.13868,-0.2793 8.7372842,8.7373588 89.850637 0 1 -4.11328,-5.86328 170,170 0 0 0 -3.43554,-1.87695 8.7372836,8.7373581 89.868486 0 1 -7.42188,0.5332 8.7372836,8.7373581 89.868486 0 1 -4.45703,-5.207033 170,170 0 0 0 -4.15625,-1.55078 8.7372842,8.7373586 89.890493 0 1 -7,1.08007 8.7372842,8.7373586 89.890493 0 1 -4.99023,-4.94921 170,170 0 0 0 -4.22852,-0.91993 8.7372792,8.7373537 89.915887 0 1 -6.88281,1.77344 8.7372792,8.7373537 89.915887 0 1 -5.79102,-4.5293 170,170 0 0 0 -3.57812,-0.68164 8.7372772,8.7373516 89.94378 0 1 -7.05469,2.74219 8.7372772,8.7373516 89.94378 0 1 -5.96289,-3.67383 170,170 0 0 0 -4.16016,-0.29687 8.7372714,8.7373458 89.973159 0 1 -6.22851,3.13867 8.737264,8.7373384 89.980674 0 1 -0.20508,0.0176 8.737264,8.7373384 89.980674 0 1 -6.76563,-3.4375 170,170 0 0 0 -3.64648,0.1875 8.7373421,8.7372677 0.00330712 0 1 -6.37109,4.09179 8.7373421,8.7372677 0.00330712 0 1 -6.81641,-2.7539 170,170 0 0 0 -3.67383,0.55078 8.737347,8.7372726 0.0323028 0 1 -5.91015,4.68555 8.737347,8.7372726 0.0323028 0 1 -7.04102,-2.04297 170,170 0 0 0 -3.63281,0.91406 8.7373535,8.737279 0.05880497 0 1 -5.40625,5.23633 8.7373535,8.737279 0.05880497 0 1 -7.1836,-1.31836 170,170 0 0 0 -3.57031,1.28125 8.7373531,8.7372786 0.08687761 0 1 -4.64259,5.656253 8.7373531,8.7372786 0.08687761 0 1 -7.48632,-0.50195 170,170 0 0 0 -3.39453,1.60742 8.7373624,8.7372878 0.10437806 0 1 -4.08203,6.125 8.7373624,8.7372878 0.10437806 0 1 -7.49023,0.23242 170,170 0 0 0 -3.19727,1.91406 8.7373605,8.7372858 0.11692836 0 1 -3.48242,6.54688 8.7373605,8.7372858 0.11692836 0 1 -7.42188,0.95508 170,170 0 0 0 -2.97265,2.19921 8.7373634,8.7372887 0.12423119 0 1 -2.84766,6.90821 8.7373634,8.7372887 0.12423119 0 1 -7.26758,1.66211 170,170 0 0 0 -2.73632,2.4707 8.7373636,8.7372888 0.12614096 0 1 -2.17579,7.19531 8.7373636,8.7372888 0.12614096 0 1 -7.03124,2.34375 170,170 0 0 0 -2.49024,2.75781 8.737368,8.7372931 0.122635 0 1 -1.47852,7.375 8.737368,8.7372931 0.122635 0 1 -6.71093,2.99805 170,170 0 0 0 -2.22657,3.03125 8.7373631,8.7372881 0.11380429 0 1 -0.76757,7.47461 8.7373631,8.7372881 0.11380429 0 1 -6.32422,3.61133 170,170 0 0 0 -1.9375,3.29297 8.7373624,8.7372874 0.09986277 0 1 -0.0488,7.49219 8.7373624,8.7372874 0.09986277 0 1 -5.87891,4.18554 170,170 0 0 0 -1.625,3.53711 8.7373561,8.7372811 0.0758221 0 1 0.76758,7.23047 8.7373561,8.7372811 0.0758221 0 1 -5.494143,4.94531 170,170 0 0 0 -1.25977,3.68555 8.7373513,8.7372762 0.05200411 0 1 1.4746,7.10938 8.7373513,8.7372762 0.05200411 0 1 -4.96678,5.45898 170,170 0 0 0 -0.88086,3.79492 8.7373405,8.7372653 0.02499436 0 1 2.17577,6.92774 8.7373405,8.7372653 0.02499436 0 1 -4.4082,5.93554 170,170 0 0 0 -0.45703,3.58008 8.7372703,8.7373455 89.995855 0 1 2.82618,6.94531 8.7372703,8.7373455 89.995855 0 1 -3.81055,6.36914 170,170 0 0 0 -0.0977,3.88086 z m 19.947273,2.06055 a 150,150 0 0 1 150,-150 150,150 0 0 1 150,150 150,150 0 0 1 -150,150 150,150 0 0 1 -150,-150 z" />
    <path
       style="display:inline;fill:#9b9b9b;fill-opacity:1;stroke:none;stroke-width:0.914152"
       id="path11989"
       sodipodi:type="arc"
       sodipodi:cx="255.89999"
       sodipodi:cy="105.00638"
       sodipodi:rx="75.555"
       sodipodi:ry="27.046377"
       sodipodi:start="2.8797933"
       sodipodi:end="0.26179939"
       sodipodi:arc-type="slice"
       d="m 182.91947,112.00649 a 75.555,27.046377 0 0 1 29.64396,-29.155207 75.555,27.046377 0 0 1 86.67313,0 75.555,27.046377 0 0 1 29.64396,29.155217 l -72.98053,-7.00012 z" />
    <path
       id="path13554"
       style="display:inline;fill:#ececec;fill-opacity:1;stroke:none;stroke-width:0.986212"
       d="M 256.5,77.960938 A 75.055,26.305662 0 0 0 248.69531,78.128105 8.25,25.044789 0 0 0 256.75,97.9375 8.25,25.044789 0 0 0 264.80469,78.139503 75.055,26.305662 0 0 0 256.5,77.960938 Z" />
  </g>
</svg>
