<?xml version="1.0" encoding="UTF-8" standalone="no"?>
<!-- Created with Inkscape (http://www.inkscape.org/) -->

<svg
   width="512"
   height="512"
   viewBox="0 0 512 512"
   version="1.1"
   id="svg5"
   sodipodi:docname="knob1S.svg"
   inkscape:version="1.2.1 (9c6d41e410, 2022-07-14)"
   xmlns:inkscape="http://www.inkscape.org/namespaces/inkscape"
   xmlns:sodipodi="http://sodipodi.sourceforge.net/DTD/sodipodi-0.dtd"
   xmlns="http://www.w3.org/2000/svg"
   xmlns:svg="http://www.w3.org/2000/svg">
  <sodipodi:namedview
     id="namedview7"
     pagecolor="#ffffff"
     bordercolor="#000000"
     borderopacity="0.25"
     inkscape:showpageshadow="2"
     inkscape:pageopacity="0.0"
     inkscape:pagecheckerboard="0"
     inkscape:deskcolor="#d1d1d1"
     inkscape:document-units="px"
     showgrid="false"
     inkscape:zoom="1.4142136"
     inkscape:cx="103.23759"
     inkscape:cy="293.80286"
     inkscape:window-width="2256"
     inkscape:window-height="1425"
     inkscape:window-x="-9"
     inkscape:window-y="-9"
     inkscape:window-maximized="1"
     inkscape:current-layer="svg5" />
  <defs
     id="defs2">
    <inkscape:path-effect
       effect="ruler"
       id="path-effect17697"
       is_visible="true"
       lpeversion="1"
       unit="px"
       mark_distance="20"
       mark_length="14"
       minor_mark_length="7"
       major_mark_steps="5"
       shift="0"
       offset="0"
       mark_dir="left"
       border_marks="both" />
    <inkscape:path-effect
       effect="fillet_chamfer"
       id="path-effect13882"
       is_visible="true"
       lpeversion="1"
       nodesatellites_param="C,0,0,1,0,3,0,4 @ C,0,0,1,0,3,0,4 @ C,0,0,1,0,3,0,4 @ C,0,0,1,0,3,0,4 @ C,0,0,1,0,3,0,4 @ C,0,0,1,0,3,0,4"
       unit="px"
       method="auto"
       mode="F"
       radius="3"
       chamfer_steps="4"
       flexible="false"
       use_knot_distance="true"
       apply_no_radius="true"
       apply_with_radius="true"
       only_selected="false"
       hide_knots="false" />
  </defs>
  <g
     inkscape:groupmode="layer"
     id="layer2"
     inkscape:label="Static"
     style="display:inline">
    <circle
       style="opacity:1;fill:#1a1a1a;fill-opacity:1;stroke:none;stroke-width:0.871428"
       id="path15389"
       cx="256"
       cy="256"
       r="152.5" />
    <path
       id="path17625"
       style="opacity:1;fill:#900f0f;fill-opacity:1;stroke:none;stroke-width:1.11819"
       d="m 256,194.5 a 61.5,61.5 0 0 0 -0.57812,0.0449 4.4590032,4.4590051 85.744917 0 1 -3.79688,3.0957 4.4590032,4.4590051 85.744917 0 1 -4.20117,-2.46484 61.5,61.5 0 0 0 -1.0293,0.0801 4.4590121,4.459014 77.293201 0 1 -3.42187,3.68945 4.4590121,4.459014 77.293201 0 1 -4.50196,-1.78906 61.5,61.5 0 0 0 -1.12695,0.26953 4.4590156,4.4590175 68.897122 0 1 -2.73242,4.09961 4.4590156,4.4590175 68.897122 0 1 -4.77735,-1.04883 61.5,61.5 0 0 0 -0.99609,0.41211 4.4590121,4.459014 60.509571 0 1 -2.11133,4.4336 4.4590121,4.459014 60.509571 0 1 -4.84961,-0.31641 61.5,61.5 0 0 0 -0.93359,0.57226 4.4590074,4.4590093 52.080841 0 1 -1.44727,4.67383 4.4590074,4.4590093 52.080841 0 1 -4.7539,0.35938 61.5,61.5 0 0 0 -0.83008,0.70703 4.4589989,4.4590008 43.580252 0 1 -0.83008,4.88672 4.4589989,4.4590008 43.580252 0 1 -4.63086,1.0664 61.5,61.5 0 0 0 -0.71289,0.83399 4.4590096,4.4590115 35.102346 0 1 -0.10937,4.94141 4.4590096,4.4590115 35.102346 0 1 -4.44727,1.80468 61.5,61.5 0 0 0 -0.53711,0.87696 4.4590159,4.4590178 26.692336 0 1 0.60938,4.89843 4.4590159,4.4590178 26.692336 0 1 -4.08789,2.37305 61.5,61.5 0 0 0 -0.42383,1.02148 4.4590149,4.4590168 18.307708 0 1 1.3125,4.75391 4.4590149,4.4590168 18.307708 0 1 -3.67774,2.94531 61.5,61.5 0 0 0 -0.2832,1.17578 4.4590082,4.4590101 9.8976864 0 1 2.01563,4.41211 4.4590082,4.4590101 9.8976864 0 1 -3.20118,3.51368 61.5,61.5 0 0 0 -0.084,1.05078 4.4590025,4.4590044 1.419753 0 1 2.63476,4.16406 4.4590025,4.4590044 1.419753 0 1 -2.64453,3.94727 61.5,61.5 0 0 0 0.10157,1.29882 4.4590101,4.4590082 80.102314 0 1 3.19336,3.40821 4.4590101,4.4590082 80.102314 0 1 -1.99219,4.50781 61.5,61.5 0 0 0 0.26367,1.09961 4.4590168,4.4590149 71.692292 0 1 3.67578,2.92773 4.4590168,4.4590149 71.692292 0 1 -1.31445,4.75196 61.5,61.5 0 0 0 0.39258,0.94726 4.4590178,4.4590159 63.307664 0 1 4.11914,2.44922 4.4590178,4.4590159 63.307664 0 1 -0.66211,4.81055 61.5,61.5 0 0 0 0.60547,0.98828 4.4590115,4.4590096 54.897654 0 1 0.59765,-0.11133 4.4590115,4.4590096 54.897654 0 1 3.83399,1.89258 4.4590115,4.4590096 54.897654 0 1 0.043,4.86328 61.5,61.5 0 0 0 0.75,0.87891 4.4590008,4.4589989 46.419748 0 1 1.2246,-0.28125 4.4590008,4.4589989 46.419748 0 1 3.4375,1.3789 4.4590008,4.4589989 46.419748 0 1 0.83008,4.88867 61.5,61.5 0 0 0 0.75977,0.64649 4.4590093,4.4590074 37.919159 0 1 1.84961,-0.51758 4.4590093,4.4590074 37.919159 0 1 2.97265,0.93555 4.4590093,4.4590074 37.919159 0 1 1.44727,4.67383 61.5,61.5 0 0 0 0.98828,0.60742 4.459014,4.4590121 29.490429 0 1 2.34766,-0.91992 4.459014,4.4590121 29.490429 0 1 2.44726,0.57031 4.459014,4.4590121 29.490429 0 1 2.21485,4.47461 61.5,61.5 0 0 0 0.89843,0.37109 4.4590175,4.4590156 21.102878 0 1 2.89844,-1.33984 4.4590175,4.4590156 21.102878 0 1 1.87305,0.29101 4.4590175,4.4590156 21.102878 0 1 2.8457,4.125 61.5,61.5 0 0 0 0.93164,0.22266 4.459014,4.4590121 12.7068 0 1 3.32031,-1.86914 4.459014,4.4590121 12.7068 0 1 1.26563,0.10156 4.459014,4.4590121 12.7068 0 1 3.30273,3.66211 61.5,61.5 0 0 0 1.10743,0.10352 4.4590051,4.4590032 4.255083 0 1 3.60546,-2.46485 4.4590051,4.4590032 4.255083 0 1 0.63672,0.002 4.4590051,4.4590032 4.255083 0 1 3.79688,3.0957 A 61.5,61.5 0 0 0 256,317.5 a 61.5,61.5 0 0 0 0.57812,-0.0449 4.4590032,4.4590051 85.744917 0 1 3.79688,-3.0957 4.4590032,4.4590051 85.744917 0 1 0.63672,-0.002 4.4590032,4.4590051 85.744917 0 1 3.60742,2.46289 61.5,61.5 0 0 0 1.10547,-0.10351 4.4590121,4.459014 77.293201 0 1 3.30273,-3.66211 4.4590121,4.459014 77.293201 0 1 1.26368,-0.0996 4.4590121,4.459014 77.293201 0 1 3.32031,1.86914 61.5,61.5 0 0 0 1.04492,-0.25 4.4590156,4.4590175 68.897122 0 1 2.73437,-4.09961 4.4590156,4.4590175 68.897122 0 1 1.87305,-0.29102 4.4590156,4.4590175 68.897122 0 1 2.89649,1.3418 61.5,61.5 0 0 0 1.00195,-0.41406 4.4590121,4.459014 60.509571 0 1 2.11133,-4.4336 4.4590121,4.459014 60.509571 0 1 2.44726,-0.57031 4.4590121,4.459014 60.509571 0 1 2.34961,0.91992 61.5,61.5 0 0 0 0.98633,-0.60546 4.4590074,4.4590093 52.080841 0 1 1.44727,-4.67383 4.4590074,4.4590093 52.080841 0 1 2.97265,-0.93555 4.4590074,4.4590093 52.080841 0 1 1.84961,0.51758 61.5,61.5 0 0 0 0.83985,-0.7168 4.4589989,4.4590008 43.580252 0 1 0.75195,-4.81836 4.4589989,4.4590008 43.580252 0 1 3.4375,-1.38086 4.4589989,4.4590008 43.580252 0 1 1.22461,0.28125 61.5,61.5 0 0 0 0.74804,-0.87695 4.4590096,4.4590115 35.102346 0 1 0.043,-4.86524 4.4590096,4.4590115 35.102346 0 1 3.83399,-1.89062 4.4590096,4.4590115 35.102346 0 1 0.59765,0.11133 61.5,61.5 0 0 0 0.60547,-0.98633 4.4590159,4.4590178 26.692336 0 1 -0.66211,-4.81445 4.4590159,4.4590178 26.692336 0 1 4.11914,-2.44922 61.5,61.5 0 0 0 0.43165,-1.03711 4.4590149,4.4590168 18.307708 0 1 -1.35157,-4.66211 4.4590149,4.4590168 18.307708 0 1 3.67383,-2.92578 61.5,61.5 0 0 0 0.28711,-1.19531 4.4590082,4.4590101 9.8976864 0 1 -2.01563,-4.41211 4.4590082,4.4590101 9.8976864 0 1 3.19336,-3.41016 61.5,61.5 0 0 0 0.0996,-1.25195 4.4590025,4.4590044 1.419753 0 1 -2.64257,-4.06641 4.4590025,4.4590044 1.419753 0 1 2.8164,-3.92383 61.5,61.5 0 0 0 -0.0918,-1.17187 4.4590101,4.4590082 80.102314 0 1 -3.375,-3.5586 4.4590101,4.4590082 80.102314 0 1 2.17188,-4.48437 61.5,61.5 0 0 0 -0.24414,-1.01953 4.4590168,4.4590149 71.692292 0 1 -3.875,-3.03125 4.4590168,4.4590149 71.692292 0 1 1.49414,-4.75196 61.5,61.5 0 0 0 -0.43359,-1.05664 4.4590178,4.4590159 63.307664 0 1 -4.25782,-2.33984 4.4590178,4.4590159 63.307664 0 1 0.76758,-4.90625 61.5,61.5 0 0 0 -0.51758,-0.90039 4.4590115,4.4590096 54.897654 0 1 -4.625,-1.77344 4.4590115,4.4590096 54.897654 0 1 0.0332,-4.95312 61.5,61.5 0 0 0 -0.63086,-0.82032 4.4590008,4.4589989 46.419748 0 1 -4.85742,-1.0664 4.4590008,4.4589989 46.419748 0 1 -0.70118,-4.90039 61.5,61.5 0 0 0 -0.83203,-0.78907 4.4590093,4.4590074 37.919159 0 1 -4.8789,-0.26367 4.4590093,4.4590074 37.919159 0 1 -1.41993,-4.73828 61.5,61.5 0 0 0 -0.94336,-0.64844 4.459014,4.4590121 29.490429 0 1 -4.86718,0.45508 4.459014,4.4590121 29.490429 0 1 -2.09961,-4.47265 61.5,61.5 0 0 0 -0.93164,-0.44532 4.4590175,4.4590156 21.102878 0 1 -4.85352,1.1211 4.4590175,4.4590156 21.102878 0 1 -2.73242,-4.11719 61.5,61.5 0 0 0 -1.0918,-0.32227 4.459014,4.4590121 12.7068 0 1 -4.53906,1.85938 4.459014,4.4590121 12.7068 0 1 -3.30273,-3.66602 61.5,61.5 0 0 0 -1.13086,-0.15625 4.4590051,4.4590032 4.255083 0 1 -4.21875,2.51953 4.4590051,4.4590032 4.255083 0 1 -3.80274,-3.125 A 61.5,61.5 0 0 0 256,194.5 Z" />
  </g>
</svg>
